HIERARCHY
ROOT Hips
{
  OFFSET -33.9132 29.2015 117.021
  CHANNELS 6 Xposition Yposition Zposition Zrotation Xrotation Yrotation
  JOINT LeftUpLeg
  {
    OFFSET 8.64259 1.95398 -2.38835
    CHANNELS 3 Zrotation Xrotation Yrotation
    JOINT LeftLeg
    {
      OFFSET 43.7702 0 0
      CHANNELS 3 Zrotation Xrotation Yrotation
      JOINT LeftFoot
      {
        OFFSET 40.6238 0 0
        CHANNELS 3 Zrotation Xrotation Yrotation
        JOINT LeftToeBase
        {
          OFFSET 12.7242 0 0
          CHANNELS 3 Zrotation Xrotation Yrotation
          End Site
          {
            OFFSET 0 0 0
          }
        }
      }
    }
  }
  JOINT RightUpLeg
  {
    OFFSET -8.2249 1.95398 -2.59336
    CHANNELS 3 Zrotation Xrotation Yrotation
    JOINT RightLeg
    {
      OFFSET 43.5653 0 0
      CHANNELS 3 Zrotation Xrotation Yrotation
      JOINT RightFoot
      {
        OFFSET 40.6238 0 0
        CHANNELS 3 Zrotation Xrotation Yrotation
        JOINT RightToeBase
        {
          OFFSET 12.7242 0 0
          CHANNELS 3 Zrotation Xrotation Yrotation
          End Site
          {
            OFFSET 0 0 0
          }
        }
      }
    }
  }
  JOINT Spine
  {
    OFFSET 0.165834 0.87714 6.61349
    CHANNELS 3 Zrotation Xrotation Yrotation
    JOINT Spine1
    {
      OFFSET 7.38963 1.71661e-005 0
      CHANNELS 3 Zrotation Xrotation Yrotation
      JOINT Spine2
      {
        OFFSET 11.9445 1.14441e-005 0
        CHANNELS 3 Zrotation Xrotation Yrotation
        JOINT Spine3
        {
          OFFSET 14.7254 4.19617e-005 0
          CHANNELS 3 Zrotation Xrotation Yrotation
          JOINT Spine4
          {
            OFFSET 10.9679 0 0
            CHANNELS 3 Zrotation Xrotation Yrotation
            JOINT RightShoulder
            {
              OFFSET 2.46616 -1.6653 3.69651
              CHANNELS 3 Zrotation Xrotation Yrotation
              JOINT RightArm
              {
                OFFSET 13.0012 0 0
                CHANNELS 3 Zrotation Xrotation Yrotation
                JOINT RightForeArm
                {
                  OFFSET 28.7848 1.62311e-005 0
                  CHANNELS 3 Zrotation Xrotation Yrotation
                  JOINT RightHand
                  {
                    OFFSET 26.5688 1.62095e-005 0
                    CHANNELS 3 Zrotation Xrotation Yrotation
                    End Site
                    {
                      OFFSET 0 0 0
                    }
                  }
                }
              }
            }
            JOINT LeftShoulder
            {
              OFFSET 2.38034 -1.29275 -3.7523
              CHANNELS 3 Zrotation Xrotation Yrotation
              JOINT LeftArm
              {
                OFFSET 16.3182 6.07031e-005 0
                CHANNELS 3 Zrotation Xrotation Yrotation
                JOINT LeftForeArm
                {
                  OFFSET 27.0901 0 0
                  CHANNELS 3 Zrotation Xrotation Yrotation
                  JOINT LeftHand
                  {
                    OFFSET 24.5451 1.51738e-005 0
                    CHANNELS 3 Zrotation Xrotation Yrotation
                    End Site
                    {
                      OFFSET 0 0 0
                    }
                  }
                }
              }
            }
            JOINT Neck
            {
              OFFSET 5.0226 -0.0266342 0
              CHANNELS 3 Zrotation Xrotation Yrotation
              JOINT Head
              {
                OFFSET 6.69364 2.86102e-005 0
                CHANNELS 3 Zrotation Xrotation Yrotation
                End Site
                {
                  OFFSET 0 0 0
                }
              }
            }
          }
        }
      }
    }
  }
}
MOTION
Frames:	10
Frame Time:	0.0416667
7.07343 100.82 25.9418 -141.356 -83.8274 -141.834 -174.449 -3.493 89.2854 -11.4935 6.31626 0.107843 70.3009 6.3656 0.100913 17.9008 -8.81357 6.45343 172.771 -2.16165 88.1065 -14.1563 -11.7664 -0.388873 68.1808 -5.35152 1.84843 27.1018 -0.0954353 3.30383 0.12405 7.42501 -90.052 12.024 0.222146 -0.12801 0.353057 0.216298 -0.13768 -22.1822 0.250344 -0.0553287 -2.1696 0.250346 -0.0553397 91.6357 -28.6267 -103.973 53.5205 2.10024 -8.25743 -5.89773 -49.7036 -5.83814 -18.7938 2.01032 -17.7798 -86.8136 -48.912 83.3296 -24.5741 -2.51294 -14.1963 -12.9874 32.7117 -0.0244412 6.74695 -0.134561 -8.28769 8.43473 0.174377 -1.13836 -8.33874 0.303825 2.25176 
7.07433 100.812 25.9381 -139.926 -83.767 -140.356 -174.667 -3.3936 89.1364 -11.8158 5.51768 0.381818 71.3343 6.56026 -1.50668 16.5335 -11.5552 9.63969 172.972 -2.11049 88.1761 -14.0546 -13.267 -0.584001 67.4828 -5.03934 1.34936 27.1346 0.101457 2.49598 0.212978 7.40722 -90.1084 12.0598 0.372267 -0.256907 0.388914 0.3606 -0.273055 -22.1466 0.432262 -0.133154 -2.13393 0.43227 -0.133151 92.0412 -28.1078 -103.321 53.6993 2.08892 -8.05752 -6.06499 -51.5154 -5.95769 -20.0653 1.97774 -16.7176 -87.4894 -49.7877 82.454 -23.9276 -2.68873 -14.6199 -13.0494 32.7154 -0.0244422 7.35898 -0.126365 -7.79739 7.75304 0.139165 -0.461838 -7.37994 0.165719 1.67391 
7.09131 100.803 25.8965 -134.885 -83.5901 -135.069 -174.493 -3.04696 89.3546 -11.9989 5.18377 0.254261 71.5965 6.60513 -1.37543 16.6668 -11.5792 9.80903 173.285 -1.91538 88.5122 -13.8782 -13.4407 -0.706544 67.5281 -5.27009 0.837069 26.4793 -0.00722389 3.95307 0.322163 7.37647 -90.1669 12.1219 0.561502 -0.39513 0.451031 0.543569 -0.419473 -22.0849 0.654292 -0.208117 -2.07229 0.654295 -0.208109 92.3592 -27.8085 -102.766 53.8848 1.86804 -8.41463 -6.06801 -51.5528 -5.96019 -18.5233 1.5536 -15.1168 -87.9206 -50.132 81.8667 -23.9064 -2.90589 -14.7818 -13.0208 32.4288 -0.0243642 9.86367 -0.200708 -6.99819 7.33503 -0.146339 -0.546275 -7.02907 -0.117498 2.28651 
7.10446 100.815 25.7938 -135.405 -83.6289 -135.731 -174.48 -3.0024 89.2649 -12.0431 5.36088 0.16575 71.5099 6.55932 -1.28716 16.4068 -11.3279 9.13723 173.223 -1.83577 88.379 -13.8946 -13.4576 -0.718352 67.5128 -5.24169 1.00311 26.6976 0.0691396 3.32361 0.30657 7.38015 -90.1611 12.1144 0.533326 -0.38024 0.443531 0.516065 -0.403353 -22.0923 0.62294 -0.202372 -2.07969 0.622935 -0.202387 92.2896 -27.7152 -102.942 53.8628 1.90768 -8.33639 -6.06109 -51.4434 -5.95254 -18.4857 1.58731 -15.3367 -87.8985 -50.2632 81.9234 -23.5617 -2.36157 -14.6855 -13.2643 31.5666 -0.0241362 14.0651 -0.167354 -5.02479 7.60153 -0.0163068 -0.170459 -7.6082 -0.0542349 1.73508 
7.13305 100.841 25.7574 -135.399 -83.5085 -135.757 -174.524 -3.24214 89.1963 -11.7082 5.33602 0.180801 71.3455 6.58684 -1.10021 16.3283 -11.3926 9.16225 173.318 -1.72749 88.3687 -14.3116 -13.1784 -0.85428 67.2117 -4.72124 2.01685 27.6057 -0.00448917 2.10823 0.31626 7.38823 -90.1697 12.0984 0.548589 -0.398897 0.427466 0.5305 -0.422664 -22.1085 0.643106 -0.215581 -2.09579 0.643109 -0.215584 92.2866 -27.5364 -103.009 53.9258 1.91357 -8.23993 -6.02255 -51.0696 -5.9269 -18.0118 1.58723 -15.6178 -87.9714 -50.3068 81.8218 -23.4027 -1.8573 -14.7133 -13.5328 30.7322 -0.0239247 19.4008 0.015672 -2.97817 7.78822 -0.0118819 -0.0562747 -7.96978 -0.070553 1.55689 
7.20286 100.83 25.7348 -135.504 -83.6166 -135.88 -174.607 -3.0521 89.1198 -11.9852 5.1465 0.252963 71.5881 6.59542 -1.50459 16.1692 -11.4548 9.10148 173.193 -1.74051 88.3011 -14.1156 -13.5128 -0.754027 67.4198 -5.11028 0.911453 27.5887 -0.1422 2.67267 0.284619 7.35172 -90.1573 12.1713 0.491328 -0.368457 0.500381 0.474638 -0.389736 -22.0354 0.579353 -0.20376 -2.02271 0.579351 -0.203762 92.1228 -27.5313 -103.351 54.0459 2.02912 -7.77716 -6.01033 -51.0025 -5.91732 -18.796 1.74117 -16.1063 -87.774 -49.9182 82.0489 -23.8087 -2.01087 -14.2543 -13.4749 30.3999 -0.0238428 24.6762 0.404275 -0.899657 7.42127 0.00482306 -0.37158 -7.85372 -0.00307241 1.88508 
7.19712 100.831 25.7439 -133.417 -83.5622 -133.485 -174.439 -2.82787 89.4249 -12.104 5.19147 0.184399 71.5282 6.56337 -1.25157 16.5764 -11.3837 9.39981 173.382 -1.74567 88.6022 -13.9138 -13.3661 -0.733538 67.4161 -5.07813 1.23255 26.7738 0.0880135 3.14073 0.294805 7.33855 -90.1926 12.1977 0.494854 -0.439484 0.526751 0.475035 -0.460849 -22.0089 0.604053 -0.270439 -1.99624 0.604054 -0.270448 92.0125 -27.5262 -103.583 53.9304 2.00984 -7.97561 -5.9714 -50.7687 -5.88732 -17.6231 1.56185 -15.6961 -87.6953 -49.9093 82.1655 -23.9561 -2.41403 -14.1355 -13.2436 30.739 -0.0239264 29.7852 0.988479 1.21711 7.31975 -0.0119071 -0.398343 -7.72191 -0.0152039 1.95473 
7.10521 100.834 25.6885 -132.154 -83.678 -132.303 -174.439 -2.60577 89.4379 -12.1211 5.16827 0.141261 71.5544 6.56652 -1.37265 16.2799 -11.3621 9.06442 173.501 -1.48375 88.6695 -13.9655 -13.328 -0.792051 67.0302 -4.73411 1.63083 27.4674 -0.0279233 2.43383 0.298868 7.32702 -90.1859 12.2207 0.505978 -0.427584 0.549806 0.486671 -0.449442 -21.9859 0.611092 -0.255745 -1.97325 0.611089 -0.255747 92.0893 -27.5661 -103.409 53.8401 2.03296 -8.02849 -6.01925 -51.0586 -5.92438 -17.5228 1.56049 -15.7463 -87.7377 -49.7541 82.0743 -24.0404 -2.2697 -14.329 -13.3667 30.7515 -0.0239295 34.6266 1.52338 2.54716 7.74475 -0.0281475 -0.380068 -8.27487 -0.043989 1.97127 
7.13396 100.825 25.7695 -133.512 -83.495 -133.734 -174.58 -2.94266 89.254 -12.0483 4.52612 0.32096 71.6004 6.46158 -1.68334 16.3079 -11.0027 8.51059 173.317 -1.81528 88.4802 -13.8924 -13.1931 -0.763462 68.0408 -5.54383 1.19559 25.9515 0.415067 3.23476 0.302055 7.35036 -90.1809 12.1741 0.514828 -0.418173 0.503144 0.495921 -0.440431 -22.0326 0.616703 -0.244115 -2.01996 0.616699 -0.24412 92.1821 -27.4649 -103.251 54.1014 1.94888 -7.92183 -6.02391 -51.074 -5.92721 -18.2697 1.60604 -15.5828 -87.8645 -49.6197 81.8591 -24.139 -2.30638 -14.2987 -13.3384 31.031 -0.0239994 37.9787 1.94974 3.45939 7.4751 -0.176198 -0.669108 -7.86327 -0.151981 2.60371 
7.10446 100.808 25.8017 -132.56 -83.573 -132.925 -174.654 -2.89348 89.123 -11.9601 4.73254 0.30171 71.5265 6.48903 -1.61128 16.7685 -11.1361 9.19326 173.3 -1.57523 88.3725 -14.0362 -13.583 -0.783081 67.2874 -4.90677 1.62059 27.5223 0.040972 2.06361 0.304517 7.3383 -90.1822 12.1982 0.51905 -0.421535 0.527265 0.499999 -0.44397 -22.0085 0.621735 -0.246044 -1.99585 0.62174 -0.246049 92.2029 -27.4502 -103.213 54.045 1.97699 -7.91804 -6.00182 -50.8481 -5.91211 -18.457 1.62678 -15.6024 -87.9339 -49.8942 81.8039 -23.8278 -2.22118 -14.3807 -13.4561 30.7127 -0.0239198 39.3736 2.20458 3.94836 7.49246 -0.0433977 -0.452391 -7.79499 -0.0638241 2.60443 
